<svg xmlns="http://www.w3.org/2000/svg" version="1.1" xmlns:xlink="http://www.w3.org/1999/xlink" xmlns:svgjs="http://svgjs.dev/svgjs" width="1000" height="1000" viewBox="0 0 1000 1000"><rect width="1000" height="1000" fill="#000000"></rect><g transform="matrix(0.7,0,0,0.7,149.5757632840823,438.754584174588)"><svg viewBox="0 0 396 70" data-background-color="#292929" preserveAspectRatio="xMidYMid meet" height="176" width="1000" xmlns="http://www.w3.org/2000/svg" xmlns:xlink="http://www.w3.org/1999/xlink"><g id="tight-bounds" transform="matrix(1,0,0,1,0.2399971100523146,-0.20146828101590586)"><svg viewBox="0 0 395.5199999999999 70.40293656203183" height="70.40293656203183" width="395.5199999999999"><g><svg viewBox="0 0 625.8107598456777 111.39491106708178" height="70.40293656203183" width="395.5199999999999"><g transform="matrix(1,0,0,1,230.29075984567774,15.39538930087744)"><svg viewBox="0 0 395.52 80.6041324653269" height="80.6041324653269" width="395.52"><g id="textblocktransform"><svg viewBox="0 0 395.52 80.6041324653269" height="80.6041324653269" width="395.52" id="textblock"><g><svg viewBox="0 0 395.52 80.6041324653269" height="80.6041324653269" width="395.52"><g transform="matrix(1,0,0,1,0,0)"><svg width="395.52" viewBox="2.049999952316284 -35.5 176.47999572753906 36" height="80.6041324653269" data-palette-color="#aa3fff"><g class="wordmark-text-0" data-fill-palette-color="primary" id="text-0"><path d="M2.05 0L2.05-35 10.35-35Q14.6-35 16.55-33.02 18.5-31.05 18.5-26.95L18.5-26.95 18.5-25.55Q18.5-22.85 17.63-21.15 16.75-19.45 14.95-18.7L14.95-18.7 14.95-18.6Q19.05-17.2 19.05-11.3L19.05-11.3 19.05-8.3Q19.05-4.25 16.93-2.13 14.8 0 10.7 0L10.7 0 2.05 0ZM7.55-20.75L9.7-20.75Q11.35-20.75 12.18-21.6 13-22.45 13-24.45L13-24.45 13-26.4Q13-28.3 12.33-29.15 11.65-30 10.2-30L10.2-30 7.55-30 7.55-20.75ZM7.55-5L10.7-5Q12.15-5 12.85-5.78 13.55-6.55 13.55-8.45L13.55-8.45 13.55-11.5Q13.55-13.9 12.73-14.83 11.9-15.75 10-15.75L10-15.75 7.55-15.75 7.55-5ZM22.25 0L22.25-35 37.25-35 37.25-30 27.75-30 27.75-20.75 35.3-20.75 35.3-15.75 27.75-15.75 27.75-5 37.25-5 37.25 0 22.25 0ZM40.4 0L40.4-35 45.9-35 45.9-5 54.95-5 54.95 0 40.4 0ZM57.59 0L57.59-35 63.09-35 63.09-5 72.14-5 72.14 0 57.59 0Z" fill="#ffffff" data-fill-palette-color="primary"></path><path d="M82.19 0L82.19-35 87.69-35 87.69-20.75 93.59-20.75 93.59-35 99.09-35 99.09 0 93.59 0 93.59-15.75 87.69-15.75 87.69 0 82.19 0ZM101.73 0L107.44-35 114.88-35 120.59 0 115.09 0 114.09-6.95 114.09-6.85 107.84-6.85 106.84 0 101.73 0ZM108.48-11.6L113.44-11.6 110.98-28.9 110.88-28.9 108.48-11.6ZM130.98 0.5Q127.03 0.5 124.96-1.75 122.88-4 122.88-8.1L122.88-8.1 122.88-26.9Q122.88-31 124.96-33.25 127.03-35.5 130.98-35.5L130.98-35.5Q134.93-35.5 137.01-33.25 139.08-31 139.08-26.9L139.08-26.9 139.08-23.2 133.88-23.2 133.88-27.25Q133.88-30.5 131.13-30.5L131.13-30.5Q128.38-30.5 128.38-27.25L128.38-27.25 128.38-7.7Q128.38-4.5 131.13-4.5L131.13-4.5Q133.88-4.5 133.88-7.7L133.88-7.7 133.88-13.05 139.08-13.05 139.08-8.1Q139.08-4 137.01-1.75 134.93 0.5 130.98 0.5L130.98 0.5ZM142.38 0L142.38-35 147.88-35 147.88-20.25 154.88-35 160.38-35 153.83-22.15 160.48 0 154.73 0 150.08-15.6 147.88-11.15 147.88 0 142.38 0ZM170.23 0.5Q166.23 0.5 164.18-1.78 162.13-4.05 162.13-8.3L162.13-8.3 162.13-10.3 167.33-10.3 167.33-7.9Q167.33-4.5 170.18-4.5L170.18-4.5Q171.58-4.5 172.3-5.33 173.03-6.15 173.03-8L173.03-8Q173.03-10.2 172.03-11.88 171.03-13.55 168.33-15.9L168.33-15.9Q164.93-18.9 163.58-21.33 162.23-23.75 162.23-26.8L162.23-26.8Q162.23-30.95 164.33-33.23 166.43-35.5 170.43-35.5L170.43-35.5Q174.38-35.5 176.4-33.23 178.43-30.95 178.43-26.7L178.43-26.7 178.43-25.25 173.23-25.25 173.23-27.05Q173.23-28.85 172.53-29.68 171.83-30.5 170.48-30.5L170.48-30.5Q167.73-30.5 167.73-27.15L167.73-27.15Q167.73-25.25 168.75-23.6 169.78-21.95 172.48-19.6L172.48-19.6Q175.93-16.6 177.23-14.15 178.53-11.7 178.53-8.4L178.53-8.4Q178.53-4.1 176.4-1.8 174.28 0.5 170.23 0.5L170.23 0.5Z" fill="#ffffff" data-fill-palette-color="secondary"></path></g></svg></g></svg></g></svg></g></svg></g><g><svg viewBox="0 0 211.26205866979322 111.39491106708178" height="111.39491106708178" width="211.26205866979322"><g><svg xmlns="http://www.w3.org/2000/svg" xmlns:xlink="http://www.w3.org/1999/xlink" version="1.1" x="0" y="0" viewBox="12.675000190734863 33.92740249633789 75.05000305175781 39.57259750366211" enable-background="new 0 0 100 100" xml:space="preserve" height="111.39491106708178" width="211.26205866979322" class="icon-icon-0" data-fill-palette-color="accent" id="icon-0"><g fill="#bb8eff" data-fill-palette-color="accent"><g fill="#bb8eff" data-fill-palette-color="accent"><path d="M28.7 68.9c-0.4 0-0.9-0.2-1.2-0.5L13.2 54.1c-0.7-0.7-0.7-1.8 0-2.5l14.1-14.1c0.7-0.7 1.8-0.7 2.5 0 0.7 0.7 0.7 1.8 0 2.5L16.9 52.9l13.1 13.1c0.7 0.7 0.7 1.8 0 2.5C29.6 68.7 29.1 68.9 28.7 68.9z" fill="#ffffff" data-fill-palette-color="accent"></path><path d="M71.8 68.9c-0.4 0-0.9-0.2-1.2-0.5-0.7-0.7-0.7-1.8 0-2.5l12.9-12.9L70.4 40c-0.7-0.7-0.7-1.8 0-2.5 0.7-0.7 1.8-0.7 2.5 0l14.3 14.3c0.7 0.7 0.7 1.8 0 2.5L73.1 68.4C72.7 68.7 72.3 68.9 71.8 68.9z" fill="#ffffff" data-fill-palette-color="accent"></path></g><path d="M38.1 73.5c-0.3 0-0.7-0.1-0.9-0.3-0.8-0.5-1-1.6-0.5-2.4l23.2-36.1c0.5-0.8 1.6-1 2.4-0.5 0.8 0.5 1 1.6 0.5 2.4L39.6 72.7C39.3 73.2 38.7 73.5 38.1 73.5z" fill="#ffffff" data-fill-palette-color="accent"></path></g></svg></g></svg></g></svg></g><defs></defs></svg><rect width="395.5199999999999" height="70.40293656203183" fill="none" stroke="none" visibility="hidden"></rect></g></svg></g></svg>