<svg xmlns="http://www.w3.org/2000/svg" viewBox="0 0 3022.91 1500"><defs><style>.cls-1{fill:#333;}.cls-2{font-size:215.78px;font-family:Avenir-Heavy, Avenir;font-weight:800;}.cls-2,.cls-6{fill:#0071bc;}.cls-3{letter-spacing:0em;}.cls-4,.cls-5{fill:#55c3ff;}.cls-4{letter-spacing:0em;}</style></defs>
<g id="logo"><rect class="cls-1" x="1522.91" width="1500" height="1500"/><path class="cls-5" d="M2166.7,1019.57c-9.89-2-20.07-3.05-29.61-6.12-12.79-4.11-16.6-11.48-13.89-24.46,4.69-22.52,3.39-45-.58-67.31a66.76,66.76,0,0,0-7.84-20.74c-22.51-39.62-45.85-78.77-68.08-118.54-17.06-30.53-29.77-62.91-35.16-97.7-7.37-47.63,1.36-90.74,36.44-126.24a7.78,7.78,0,0,0,1.62-6.27c-4.73-19.1-1.16-36.56,11.6-51.26,19.27-22.2,43.42-33.53,73.39-28.69,11.17,1.81,20.12,8.32,28.54,15.62,1.69,1.46,4.79,2.62,6.84,2.16,77.61-17.46,137.73,10.45,184.31,71.82,11,14.44,19.37,30.84,28.57,46.57,19.66,33.61,38.82,67.53,58.79,101A63.93,63.93,0,0,0,2458.5,728a192.83,192.83,0,0,0,58.79,28.85c1.19.35,2.38.71,3.54,1.14,14,5.17,18.66,12.79,14.27,26.94a145.19,145.19,0,0,1-13.29,29.91c-15.71,26.82-37.17,48.56-61.51,67.73-42.69,33.62-85.6,66.79-134.91,90.6-43.74,21.13-89.17,36.66-137.37,43.53-7,1-14,1.29-21.05,1.91Zm80.78-158.27c-26.57,19.34-52,39.24-71.6,65.45a78,78,0,0,0-7.13,11.62c-9.09,18-2.26,29.55,17.94,30.35a56.93,56.93,0,0,0,12.39-.45c10.37-1.89,20.9-3.49,30.93-6.57,59.92-18.44,114.59-47.54,165.86-83.22,23-16,44.93-33.53,61.93-56.15A85.41,85.41,0,0,0,2470.22,799c4.12-12.08-1.9-21.1-14.41-23a76.11,76.11,0,0,0-18.53-.57c-22.67,2.12-44.12,9.16-65.17,17.41-10.91,4.28-21.62,9.08-32.9,13.85,6.27,14.37,9.34,28.35,4.87,43-4.52,14.81-13.53,26.06-27.49,32.87C2296.94,892.09,2269.4,892.68,2247.48,861.3Z"/><path class="cls-6" d="M2011.93,411.5h-55.06q-16.32,0-26,5.73a41.23,41.23,0,0,0-15.29,15.87,61.47,61.47,0,0,0-7.14,22.48,207.73,207.73,0,0,0-1.53,25.56V636.29q0,30-10.19,50.68t-24.47,33.94q-14.3,13.23-29.06,19.83t-24,8.38v1.76q9.16.89,24,6.61T1872.25,776q14.26,12.79,24.47,34.38t10.19,54.21v154.27a207.73,207.73,0,0,0,1.53,25.56,57.54,57.54,0,0,0,7.14,22,45.68,45.68,0,0,0,15.29,15.87q9.69,6.15,26,6.17h55.06v52.89h-71.37a108.66,108.66,0,0,1-38.24-7.05,103.7,103.7,0,0,1-34.15-21.16,110.18,110.18,0,0,1-25-34.82q-9.7-20.71-9.69-47.16V876.94q0-23.81-7.65-42.32A105.3,105.3,0,0,0,1806,802.89a80,80,0,0,0-28-19.83,82.53,82.53,0,0,0-32.11-6.61V723.56a78,78,0,0,0,32.11-7.06,88,88,0,0,0,28-19.83,99.39,99.39,0,0,0,19.88-31.29q7.65-18.52,7.65-41.44V468.8q0-26.44,10.2-47.16a116.89,116.89,0,0,1,25.49-34.82,103.7,103.7,0,0,1,34.15-21.16,106,106,0,0,1,37.22-7.05h71.37Z"/><path class="cls-6" d="M2533.88,411.5h55.06q16.32,0,26,5.73a41.25,41.25,0,0,1,15.3,15.87,61.65,61.65,0,0,1,7.13,22.48,207.73,207.73,0,0,1,1.53,25.56V636.29q0,30,10.2,50.68t24.47,33.94q14.29,13.23,29.06,19.83t24,8.38v1.76q-9.18.89-24,6.61T2673.57,776q-14.27,12.79-24.47,34.38t-10.2,54.21v154.27a207.73,207.73,0,0,1-1.53,25.56,57.7,57.7,0,0,1-7.13,22,45.71,45.71,0,0,1-15.3,15.87q-9.68,6.15-26,6.17h-55.06v52.89h71.38a108.6,108.6,0,0,0,38.23-7.05,103.75,103.75,0,0,0,34.16-21.16,110.34,110.34,0,0,0,25-34.82q9.7-20.71,9.68-47.16V876.94q0-23.81,7.65-42.32a105.69,105.69,0,0,1,19.88-31.73,80,80,0,0,1,28-19.83,82.61,82.61,0,0,1,32.12-6.61V723.56a78.11,78.11,0,0,1-32.12-7.06,88.14,88.14,0,0,1-28-19.83A99.74,99.74,0,0,1,2720,665.38q-7.65-18.52-7.65-41.44V468.8q0-26.44-10.19-47.16a117.23,117.23,0,0,0-25.49-34.82,103.75,103.75,0,0,0-34.16-21.16,106,106,0,0,0-37.21-7.05h-71.38Z"/></g></svg>