<svg id="prefix__Layer_1" data-name="Layer 1" xmlns="http://www.w3.org/2000/svg" viewBox="0 0 1388.06 303.61" width="180px"><defs><style>.prefix__cls-5{fill:#0071bc}</style></defs><text transform="translate(420.5 209.96)" fill="#0071bc" font-size="215.78" font-family="Avenir-Heavy,Avenir" font-weight="800">Be<tspan x="263.68" y="0" letter-spacing="0">l</tspan><tspan x="320" y="0">l</tspan><tspan x="376.1" y="0" letter-spacing="0" fill="#55c3ff">Hacks</tspan></text><path d="M204.88 835.73c-3.5-.69-7.1-1.08-10.47-2.16-4.53-1.46-5.88-4.07-4.92-8.66 1.66-8 1.2-15.91-.21-23.81a23.51 23.51 0 00-2.77-7.34c-8-14-16.22-27.87-24.08-41.94-6-10.8-10.54-22.26-12.44-34.57-2.61-16.85.48-32.1 12.89-44.66a2.75 2.75 0 00.57-2.22c-1.67-6.76-.41-12.93 4.11-18.14 6.81-7.85 15.36-11.86 26-10.15 3.95.64 7.12 2.95 10.1 5.53a3.2 3.2 0 002.42.76c27.46-6.17 48.73 3.7 65.21 25.42 3.88 5.1 6.85 10.91 10.11 16.47 6.95 11.89 13.73 23.89 20.8 35.72a22.59 22.59 0 006 6.58 68.21 68.21 0 0020.8 10.21c.42.12.84.25 1.26.4 4.94 1.83 6.6 4.53 5 9.53a51.41 51.41 0 01-4.7 10.59c-5.56 9.48-13.15 17.18-21.76 24-15.1 11.89-30.29 23.63-47.73 32.06-15.48 7.47-31.55 13-48.61 15.4-2.46.35-5 .45-7.44.67zm28.58-56c-9.4 6.85-18.38 13.89-25.33 23.16a27.43 27.43 0 00-2.52 4.11c-3.22 6.38-.8 10.46 6.34 10.74a20.11 20.11 0 004.39-.16 95.75 95.75 0 0010.94-2.32c21.2-6.53 40.54-16.82 58.68-29.45 8.15-5.66 15.9-11.86 21.92-19.86a30.51 30.51 0 004.39-8.26c1.46-4.28-.67-7.47-5.1-8.16a27.17 27.17 0 00-6.56-.2c-8 .75-15.6 3.24-23.05 6.16-3.86 1.52-7.65 3.22-11.64 4.9 2.22 5.09 3.3 10 1.72 15.22a18.33 18.33 0 01-9.73 11.63c-6.91 3.39-16.69 3.6-24.45-7.51z" transform="translate(-55.97 -601.88)" fill="#55c3ff"/><path class="prefix__cls-5" d="M150.12 620.59h-19.48q-5.77 0-9.19 2a14.64 14.64 0 00-5.42 5.62 21.82 21.82 0 00-2.52 8 73.56 73.56 0 00-.54 9v54.89q0 10.62-3.61 17.94a40.55 40.55 0 01-8.66 12 38.61 38.61 0 01-10.28 7 40.69 40.69 0 01-8.48 3v.63a35.35 35.35 0 0118.76 8.89 37.61 37.61 0 018.66 12.16q3.6 7.65 3.61 19.18v54.58a73.56 73.56 0 00.54 9 20.48 20.48 0 002.52 7.8 16.18 16.18 0 005.42 5.62q3.42 2.17 9.19 2.18h19.48v18.71h-25.25a38.44 38.44 0 01-13.53-2.49 36.68 36.68 0 01-12.08-7.49 38.65 38.65 0 01-12.27-29v-54.54a39 39 0 00-2.7-15 37.16 37.16 0 00-7-11.23 28.23 28.23 0 00-9.92-7A29.21 29.21 0 0056 749.71V731a27.71 27.71 0 0011.36-2.49 31.36 31.36 0 009.92-7 35.17 35.17 0 007-11.07A38.14 38.14 0 0087 695.76v-54.89a37.25 37.25 0 013.61-16.69 41.4 41.4 0 019-12.32 36.65 36.65 0 0112.08-7.48 37.52 37.52 0 0113.17-2.5h25.25zM334.79 620.59h19.48q5.78 0 9.2 2a14.62 14.62 0 015.41 5.62 21.64 21.64 0 012.53 8 73.56 73.56 0 01.54 9v54.89q0 10.62 3.61 17.94a40.37 40.37 0 008.66 12 38.45 38.45 0 0010.28 7 40.84 40.84 0 008.47 3v.63a35.37 35.37 0 00-18.75 8.89 37.46 37.46 0 00-8.66 12.16Q372 769.37 372 780.9v54.58a73.56 73.56 0 01-.54 9 20.32 20.32 0 01-2.53 7.8 16.15 16.15 0 01-5.41 5.62q-3.42 2.17-9.2 2.18h-19.53v18.71h25.26a38.35 38.35 0 0013.52-2.49 36.62 36.62 0 0012.09-7.49 38.59 38.59 0 0012.26-29v-54.54a39 39 0 012.71-15 37.33 37.33 0 017-11.23 28.41 28.41 0 019.92-7 29.26 29.26 0 0111.45-2.33V731a27.75 27.75 0 01-11.37-2.49 31.58 31.58 0 01-9.92-7 35.32 35.32 0 01-7-11.07 38.14 38.14 0 01-2.71-14.66v-54.91a37.39 37.39 0 00-3.6-16.69 41.58 41.58 0 00-9-12.32 36.59 36.59 0 00-12.09-7.48 37.47 37.47 0 00-13.16-2.5h-25.36z" transform="translate(-55.97 -601.88)"/></svg>